<?xml version="1.0" standalone="no"?>
<!DOCTYPE svg PUBLIC "-//W3C//DTD SVG 20010904//EN"
 "http://www.w3.org/TR/2001/REC-SVG-20010904/DTD/svg10.dtd">
<svg version="1.0" xmlns="http://www.w3.org/2000/svg"
 width="1024.000000pt" height="195.000000pt" viewBox="0 0 1024.000000 195.000000"
 preserveAspectRatio="xMidYMid meet">

<g transform="translate(0.000000,195.000000) scale(0.100000,-0.100000)"
fill="#000000" stroke="none">
<path d="M201 1623 c10 -37 19 -69 19 -70 0 -2 6 -3 14 -3 10 0 17 16 22 45 7
53 20 51 29 -5 9 -53 31 -52 45 3 6 23 15 55 20 70 8 24 7 28 -7 25 -12 -2
-21 -19 -27 -48 l-9 -45 -12 45 c-16 63 -39 64 -51 3 l-10 -48 -10 45 c-6 29
-16 46 -26 48 -15 3 -15 -3 3 -65z"/>
<path d="M480 1680 c0 -5 5 -10 10 -10 6 0 10 5 10 10 0 6 -4 10 -10 10 -5 0
-10 -4 -10 -10z"/>
<path d="M532 1673 c-14 -27 0 -117 18 -121 14 -2 17 33 11 126 -1 18 -19 15
-29 -5z"/>
<path d="M770 1620 c0 -56 3 -70 15 -70 12 0 15 14 15 70 0 56 -3 70 -15 70
-12 0 -15 -14 -15 -70z"/>
<path d="M930 1680 c0 -5 7 -10 15 -10 8 0 15 5 15 10 0 6 -7 10 -15 10 -8 0
-15 -4 -15 -10z"/>
<path d="M990 1676 c0 -8 -6 -17 -12 -20 -10 -5 -10 -7 0 -12 7 -3 12 -24 12
-50 0 -37 3 -44 20 -44 11 0 20 5 20 10 0 6 -4 10 -10 10 -15 0 -12 67 3 74
10 5 10 7 0 12 -7 3 -13 12 -13 20 0 8 -4 14 -10 14 -5 0 -10 -6 -10 -14z"/>
<path d="M1500 1620 c0 -54 3 -70 14 -70 10 0 16 14 18 43 2 23 8 42 13 42 6
0 11 -19 13 -42 2 -29 8 -43 18 -43 10 0 14 12 14 44 0 46 -19 72 -45 62 -10
-4 -15 1 -15 14 0 11 -7 20 -15 20 -12 0 -15 -14 -15 -70z"/>
<path d="M1620 1680 c0 -5 5 -10 10 -10 6 0 10 5 10 10 0 6 -4 10 -10 10 -5 0
-10 -4 -10 -10z"/>
<path d="M2040 1680 c0 -5 5 -10 10 -10 6 0 10 5 10 10 0 6 -4 10 -10 10 -5 0
-10 -4 -10 -10z"/>
<path d="M376 1644 c-32 -31 -10 -94 33 -94 10 0 24 7 32 16 11 13 9 15 -16
12 -16 -2 -30 2 -32 10 -3 8 7 12 31 12 40 0 43 5 20 38 -18 26 -46 28 -68 6z
m49 -14 c3 -5 -3 -10 -15 -10 -12 0 -18 5 -15 10 3 6 10 10 15 10 5 0 12 -4
15 -10z"/>
<path d="M480 1605 c0 -30 5 -55 10 -55 6 0 10 25 10 55 0 30 -4 55 -10 55 -5
0 -10 -25 -10 -55z"/>
<path d="M600 1645 c-33 -40 -2 -103 44 -91 34 8 34 28 0 24 -15 -2 -29 3 -31
10 -3 8 7 12 31 12 40 0 47 17 20 44 -20 20 -48 20 -64 1z m45 -15 c3 -5 -3
-10 -15 -10 -12 0 -18 5 -15 10 3 6 10 10 15 10 5 0 12 -4 15 -10z"/>
<path d="M700 1603 c0 -29 5 -53 10 -53 6 0 10 16 10 35 0 24 6 37 20 45 29
15 25 27 -10 27 -30 0 -30 -1 -30 -54z"/>
<path d="M832 1648 c-16 -16 -16 -70 0 -86 17 -17 53 -15 69 4 12 15 10 16
-17 10 -24 -5 -33 -3 -37 8 -5 13 1 16 28 16 27 0 35 4 35 18 0 24 -19 42 -45
42 -12 0 -26 -5 -33 -12z m48 -18 c0 -5 -7 -10 -15 -10 -8 0 -15 5 -15 10 0 6
7 10 15 10 8 0 15 -4 15 -10z"/>
<path d="M930 1605 c0 -42 3 -55 15 -55 12 0 15 13 15 55 0 42 -3 55 -15 55
-12 0 -15 -13 -15 -55z"/>
<path d="M1040 1616 c0 -52 12 -64 63 -64 l37 0 0 54 c0 40 -4 54 -14 54 -10
0 -16 -14 -18 -42 -2 -30 -8 -43 -18 -43 -10 0 -16 13 -18 43 -2 28 -8 42 -18
42 -10 0 -14 -12 -14 -44z"/>
<path d="M1160 1604 c0 -40 4 -54 14 -54 10 0 16 14 18 43 2 29 8 42 18 42 10
0 16 -13 18 -42 2 -24 8 -43 13 -43 6 0 9 22 7 53 l-3 52 -42 2 -43 2 0 -55z"/>
<path d="M1284 1635 c-27 -42 9 -103 47 -79 7 4 10 1 7 -7 -3 -8 -16 -13 -32
-11 -33 4 -34 -16 -1 -24 43 -11 65 19 65 87 l0 57 -35 0 c-26 0 -40 -6 -51
-23z m51 -31 c0 -19 -5 -29 -15 -29 -16 0 -25 28 -16 51 10 25 31 10 31 -22z"/>
<path d="M1402 1648 c-20 -20 -13 -39 18 -49 41 -15 39 -33 -2 -23 -29 6 -31
5 -19 -10 17 -20 55 -21 71 -1 17 20 6 43 -25 51 -14 3 -25 10 -25 15 0 12 27
11 35 -1 4 -6 11 -8 16 -4 15 9 -10 34 -35 34 -12 0 -27 -5 -34 -12z"/>
<path d="M1620 1605 c0 -30 5 -55 10 -55 6 0 10 25 10 55 0 30 -4 55 -10 55
-5 0 -10 -25 -10 -55z"/>
<path d="M1670 1603 c0 -29 5 -53 10 -53 6 0 10 15 10 34 0 33 20 62 33 49 4
-3 7 -24 7 -45 0 -27 4 -38 15 -38 11 0 15 12 15 44 0 50 -12 63 -57 63 l-33
0 0 -54z"/>
<path d="M1788 1605 c18 -64 38 -71 48 -17 l8 37 9 -37 c12 -50 34 -48 47 5 6
23 13 48 15 55 2 6 -2 12 -9 12 -7 0 -17 -15 -23 -32 l-10 -33 -7 33 c-4 17
-13 32 -21 32 -7 0 -16 -15 -20 -32 l-7 -33 -9 33 c-5 17 -16 32 -23 32 -11 0
-11 -10 2 -55z"/>
<path d="M1940 1645 c-33 -40 -2 -103 44 -91 34 8 34 28 0 24 -15 -2 -29 3
-31 10 -3 8 7 12 31 12 40 0 47 17 20 44 -20 20 -48 20 -64 1z m45 -15 c3 -5
-3 -10 -15 -10 -12 0 -18 5 -15 10 3 6 10 10 15 10 5 0 12 -4 15 -10z"/>
<path d="M2040 1605 c0 -30 5 -55 10 -55 6 0 10 25 10 55 0 30 -4 55 -10 55
-5 0 -10 -25 -10 -55z"/>
<path d="M2103 1653 c-25 -9 -14 -44 17 -57 35 -14 29 -29 -8 -19 -18 4 -23 2
-20 -8 7 -22 65 -24 77 -2 12 23 3 38 -26 47 -13 4 -23 12 -23 17 0 12 17 12
25 -1 9 -15 25 -12 25 4 0 21 -37 32 -67 19z"/>
<path d="M490 960 c0 -59 0 -60 28 -60 16 0 36 8 45 18 37 41 9 102 -46 102
-26 0 -27 -2 -27 -60z m58 38 c7 -7 12 -24 12 -38 0 -30 -17 -50 -42 -50 -15
0 -18 9 -18 50 0 41 3 50 18 50 10 0 23 -5 30 -12z"/>
<path d="M1130 1001 c0 -14 -6 -17 -25 -13 -19 3 -27 -1 -34 -19 -14 -38 1
-64 38 -65 l31 -1 0 59 c0 32 -2 58 -5 58 -3 0 -5 -8 -5 -19z m-11 -40 c7 -13
6 -23 -3 -36 -16 -22 -36 -12 -36 19 0 39 22 49 39 17z"/>
<path d="M1291 964 l-1 -61 31 1 c37 1 52 27 38 65 -7 18 -15 22 -34 19 -18
-4 -25 0 -28 16 -2 12 -5 -6 -6 -40z m57 -13 c5 -34 -16 -51 -33 -27 -10 14
-11 24 -4 38 13 24 33 18 37 -11z"/>
<path d="M1723 960 c-1 -55 0 -59 7 -27 4 20 10 40 13 43 13 13 27 -9 27 -42
0 -19 5 -34 10 -34 12 0 13 60 1 79 -5 8 -18 12 -29 9 -16 -4 -22 0 -25 16 -2
11 -4 -8 -4 -44z"/>
<path d="M2003 1013 c-26 -10 -13 -43 22 -57 37 -16 45 -30 20 -40 -18 -6 -45
2 -45 15 0 5 -5 9 -10 9 -7 0 -7 -6 0 -20 18 -34 80 -23 80 15 0 16 -8 24 -32
31 -17 5 -33 15 -36 22 -7 21 27 26 48 7 21 -19 28 -7 8 13 -12 12 -33 14 -55
5z"/>
<path d="M2872 960 c1 -54 2 -58 7 -25 4 26 11 40 21 40 10 0 17 -14 21 -40
l7 -40 -2 45 c-1 38 -4 45 -21 45 -11 0 -23 9 -27 20 -3 11 -6 -9 -6 -45z"/>
<path d="M3140 1001 c0 -14 -5 -18 -18 -14 -28 7 -47 -23 -36 -55 7 -21 16
-27 42 -29 l32 -1 0 59 c0 33 -4 59 -10 59 -5 0 -10 -9 -10 -19z m-5 -57 c0
-19 -5 -29 -15 -29 -16 0 -25 28 -16 51 10 25 31 10 31 -22z"/>
<path d="M3292 960 c0 -49 2 -58 7 -34 16 65 41 74 41 14 0 -22 5 -40 11 -40
6 0 9 17 7 43 -3 37 -6 42 -28 42 -16 0 -27 7 -32 20 -3 11 -6 -9 -6 -45z"/>
<path d="M3613 960 c0 -36 2 -51 4 -33 4 32 28 61 40 50 3 -4 9 -24 13 -44 l8
-38 1 35 c1 46 -11 64 -37 56 -16 -5 -21 -2 -25 16 -2 13 -4 -6 -4 -42z"/>
<path d="M4982 960 c0 -36 2 -58 5 -50 2 8 7 22 10 30 3 11 9 7 20 -13 18 -35
28 -30 12 6 -9 21 -9 30 1 42 7 8 8 15 2 15 -5 0 -16 -7 -23 -17 -13 -15 -15
-13 -20 18 -5 25 -7 17 -7 -31z"/>
<path d="M5370 1000 c0 -13 -5 -18 -15 -14 -21 8 -45 -14 -45 -41 0 -28 19
-45 48 -42 20 1 22 7 22 59 0 32 -2 58 -5 58 -3 0 -5 -9 -5 -20z m-5 -56 c0
-32 -21 -39 -38 -12 -8 12 -7 21 3 32 19 24 35 14 35 -20z"/>
<path d="M6002 960 c0 -36 2 -58 5 -50 2 8 7 22 10 30 3 11 9 7 20 -13 18 -35
28 -30 12 6 -9 21 -9 30 1 42 7 8 8 15 2 15 -5 0 -16 -7 -23 -17 -13 -15 -15
-13 -20 18 -5 25 -7 17 -7 -31z"/>
<path d="M6160 960 c0 -33 4 -60 10 -60 6 0 10 13 10 29 0 25 5 30 28 34 l27
4 -27 2 c-21 1 -28 6 -28 20 0 15 8 21 33 24 28 3 26 4 -10 5 l-43 2 0 -60z"/>
<path d="M6293 960 c0 -36 2 -50 4 -32 2 17 2 47 0 65 -2 17 -4 3 -4 -33z"/>
<path d="M6477 1002 c-22 -24 -21 -65 1 -85 21 -19 48 -22 57 -7 4 6 11 8 16
5 5 -4 9 5 9 19 0 21 -5 26 -22 25 -17 -1 -19 -2 -5 -6 21 -5 22 -17 2 -33
-19 -15 -52 -4 -60 21 -16 49 30 86 66 53 10 -9 19 -12 19 -6 0 13 -32 32 -53
32 -8 0 -21 -8 -30 -18z"/>
<path d="M6603 1013 c-26 -10 -13 -43 23 -58 39 -16 41 -38 6 -43 -13 -2 -25
3 -28 12 -3 9 -10 16 -15 16 -15 0 2 -29 22 -35 60 -19 82 37 24 61 -19 8 -35
19 -35 24 0 16 30 24 43 11 17 -17 31 -13 17 4 -12 15 -34 18 -57 8z"/>
<path d="M6797 1002 c-32 -36 -10 -102 34 -102 16 0 39 19 39 33 0 5 -7 1 -16
-7 -8 -9 -19 -16 -24 -16 -15 0 -40 31 -40 50 0 19 25 50 40 50 5 0 16 -7 24
-16 9 -8 16 -12 16 -7 0 15 -23 33 -40 33 -9 0 -24 -8 -33 -18z"/>
<path d="M8183 960 c0 -36 2 -50 4 -32 2 17 2 47 0 65 -2 17 -4 3 -4 -33z"/>
<path d="M1808 998 c-8 -24 8 -92 22 -96 12 -4 13 -2 3 9 -15 15 -17 66 -4 71
5 2 3 8 -4 15 -10 9 -15 9 -17 1z"/>
<path d="M2218 1000 c-2 -6 -2 -31 0 -55 3 -34 8 -45 21 -44 10 0 11 2 4 6
-15 5 -18 70 -4 75 5 2 3 8 -4 15 -8 8 -15 8 -17 3z"/>
<path d="M2952 994 c-7 -8 -8 -14 -2 -14 5 0 10 -18 10 -40 0 -22 3 -40 8 -40
7 0 8 98 0 105 -1 2 -9 -3 -16 -11z"/>
<path d="M3698 998 c-8 -24 8 -92 22 -96 12 -4 13 -2 3 9 -15 15 -17 66 -4 71
5 2 3 8 -4 15 -10 9 -15 9 -17 1z"/>
<path d="M3748 1000 c-5 -16 3 -100 11 -100 3 0 5 23 4 51 -1 50 -7 71 -15 49z"/>
<path d="M7822 994 c-7 -8 -8 -14 -2 -14 5 0 10 -18 10 -40 0 -22 3 -40 8 -40
7 0 8 98 0 105 -1 2 -9 -3 -16 -11z"/>
<path d="M8338 998 c-8 -24 8 -92 22 -96 12 -4 13 -2 3 9 -15 15 -17 66 -4 71
5 2 3 8 -4 15 -10 9 -15 9 -17 1z"/>
<path d="M4061 984 c0 -11 3 -14 6 -6 3 7 2 16 -1 19 -3 4 -6 -2 -5 -13z"/>
<path d="M603 945 c0 -27 2 -38 4 -22 2 15 2 37 0 50 -2 12 -4 0 -4 -28z"/>
<path d="M638 964 c-9 -18 -9 -30 -1 -42 13 -21 55 -22 61 -2 4 13 3 13 -11 2
-9 -8 -21 -11 -27 -7 -20 12 -10 25 20 25 33 0 35 3 20 31 -15 27 -48 24 -62
-7z m50 -2 c2 -7 -6 -12 -17 -12 -21 0 -27 11 -14 24 9 9 26 2 31 -12z"/>
<path d="M766 968 c14 -45 24 -68 29 -68 8 0 35 66 34 82 0 7 -9 -5 -18 -27
l-19 -40 -7 38 c-4 20 -12 37 -17 37 -5 0 -6 -10 -2 -22z"/>
<path d="M849 969 c-8 -16 -8 -28 0 -45 18 -41 71 -25 71 21 0 44 -50 61 -71
24z m46 -25 c0 -19 -5 -29 -15 -29 -16 0 -25 28 -16 51 10 25 31 10 31 -22z"/>
<path d="M941 940 l1 -45 8 38 c4 20 10 40 13 43 13 13 27 -9 27 -42 0 -19 5
-34 10 -34 12 0 13 60 2 78 -5 6 -20 11 -35 10 -25 -2 -27 -5 -26 -48z"/>
<path d="M1163 945 c0 -27 2 -38 4 -22 2 15 2 37 0 50 -2 12 -4 0 -4 -28z"/>
<path d="M1202 940 c1 -40 2 -41 5 -10 2 19 11 40 20 47 13 10 13 12 -6 10
-18 -1 -21 -7 -19 -47z"/>
<path d="M1392 978 c-20 -20 -15 -66 8 -73 20 -6 56 12 45 23 -2 3 -11 -1 -19
-7 -8 -7 -20 -10 -26 -6 -20 12 -10 25 20 25 18 0 30 5 30 13 0 16 -20 37 -35
37 -6 0 -16 -5 -23 -12z m29 -26 c-28 -4 -40 6 -21 18 9 6 20 4 29 -3 12 -10
11 -13 -8 -15z"/>
<path d="M1477 984 c-15 -15 -6 -35 20 -45 19 -7 23 -13 15 -21 -8 -8 -16 -7
-28 3 -15 12 -17 12 -12 -1 7 -21 52 -19 56 2 2 12 -6 21 -24 28 -20 8 -24 14
-16 22 8 8 16 7 28 -3 15 -12 17 -12 12 1 -5 16 -39 25 -51 14z"/>
<path d="M1554 950 c1 -43 2 -45 34 -48 32 -3 32 -3 32 42 0 55 -17 62 -22 9
-4 -53 -31 -51 -39 2 l-7 40 2 -45z"/>
<path d="M1640 969 c-17 -31 2 -72 32 -67 12 2 24 10 26 18 5 13 3 13 -11 2
-21 -18 -37 -7 -37 23 0 30 16 41 37 23 14 -11 16 -11 11 2 -8 24 -45 24 -58
-1z"/>
<path d="M1862 978 c-16 -16 -15 -53 3 -68 18 -15 47 -10 53 10 5 13 3 13 -12
1 -15 -12 -19 -12 -34 2 -15 16 -14 17 17 17 28 0 32 3 29 23 -3 25 -36 35
-56 15z m46 -16 c2 -7 -7 -12 -23 -12 -24 0 -26 2 -15 15 14 17 31 16 38 -3z"/>
<path d="M2102 978 c-16 -16 -15 -53 3 -68 18 -15 47 -10 53 10 5 13 3 13 -12
1 -15 -12 -19 -12 -34 2 -15 16 -14 17 17 17 28 0 32 3 29 23 -3 25 -36 35
-56 15z m46 -16 c2 -7 -7 -12 -23 -12 -24 0 -26 2 -15 15 14 17 31 16 38 -3z"/>
<path d="M2183 945 c0 -27 2 -38 4 -22 2 15 2 37 0 50 -2 12 -4 0 -4 -28z"/>
<path d="M2272 978 c-20 -20 -15 -66 8 -73 20 -6 56 12 45 23 -2 3 -11 -1 -19
-7 -8 -7 -20 -10 -26 -6 -20 12 -10 25 20 25 18 0 30 5 30 13 0 16 -20 37 -35
37 -6 0 -16 -5 -23 -12z m29 -26 c-28 -4 -40 6 -21 18 9 6 20 4 29 -3 12 -10
11 -13 -8 -15z"/>
<path d="M2391 986 c-2 -17 22 -86 30 -86 4 0 14 20 22 45 9 25 12 45 8 45 -5
0 -13 -15 -18 -32 l-10 -33 -16 35 c-8 19 -16 31 -16 26z"/>
<path d="M2482 978 c-16 -16 -15 -53 3 -68 18 -15 47 -10 53 10 5 13 3 13 -12
1 -15 -12 -19 -12 -34 2 -15 16 -14 17 17 17 28 0 32 3 29 23 -3 25 -36 35
-56 15z m46 -16 c2 -7 -7 -12 -23 -12 -24 0 -26 2 -15 15 14 17 31 16 38 -3z"/>
<path d="M2560 944 c0 -24 5 -44 10 -44 6 0 10 15 10 33 0 18 4 37 10 43 6 6
3 10 -10 11 -17 2 -20 -4 -20 -43z"/>
<path d="M2620 975 c-12 -14 -11 -18 1 -26 8 -5 20 -9 27 -9 6 0 12 -7 12 -15
0 -18 -27 -20 -33 -2 -2 6 -8 9 -12 5 -11 -10 4 -28 24 -28 18 0 41 18 41 32
0 5 -11 13 -25 18 -14 5 -25 14 -25 20 0 14 13 13 29 -2 11 -11 13 -10 9 2 -7
21 -32 24 -48 5z"/>
<path d="M2704 950 c1 -42 3 -45 29 -46 26 -1 27 1 26 45 l-2 46 -6 -40 c-4
-26 -11 -40 -21 -40 -10 0 -17 14 -21 40 l-7 40 2 -45z"/>
<path d="M2792 978 c-16 -16 -15 -53 3 -68 18 -15 47 -10 53 10 5 13 3 13 -11
1 -14 -11 -20 -11 -32 -1 -19 15 -19 21 -1 45 12 16 16 17 30 6 9 -7 16 -9 16
-3 0 9 -22 22 -39 22 -4 0 -12 -5 -19 -12z"/>
<path d="M3183 945 c0 -27 2 -38 4 -22 2 15 2 37 0 50 -2 12 -4 0 -4 -28z"/>
<path d="M3214 977 c-3 -9 -4 -28 -2 -44 2 -22 8 -28 27 -28 13 0 27 7 29 15
4 13 3 13 -11 2 -21 -18 -37 -7 -37 23 0 30 16 41 37 23 14 -11 16 -11 11 2
-6 20 -47 25 -54 7z"/>
<path d="M3437 984 c-14 -14 -7 -26 8 -14 12 10 19 10 27 2 8 -8 7 -13 -5 -17
-9 -3 -24 -7 -33 -10 -8 -3 -14 -13 -12 -22 2 -13 14 -18 39 -19 l35 -2 -5 42
c-5 31 -11 42 -26 44 -12 2 -24 0 -28 -4z m41 -56 c-7 -19 -38 -22 -38 -4 0
10 9 16 21 16 12 0 19 -5 17 -12z"/>
<path d="M3510 946 c0 -55 17 -62 22 -8 4 52 31 50 39 -3 l7 -40 -2 45 c-1 43
-2 45 -33 48 -33 3 -33 3 -33 -42z"/>
<path d="M3790 938 l0 -48 -97 0 c-53 0 -94 -2 -91 -5 6 -7 3929 -7 3936 0 3
3 -2 5 -11 5 -14 0 -17 10 -17 49 0 46 -1 48 -27 47 -20 -1 -30 -8 -37 -28
-11 -32 8 -62 36 -55 10 3 18 1 18 -4 0 -5 -353 -9 -860 -9 l-860 0 0 49 c0
46 -1 48 -27 47 -20 -1 -30 -8 -37 -28 -11 -32 8 -62 36 -55 10 3 18 1 18 -4
0 -5 -403 -9 -985 -9 -629 0 -985 4 -985 10 0 5 7 7 15 4 21 -8 45 14 45 41 0
28 -19 45 -48 42 -19 -1 -22 -7 -22 -49z m54 19 c8 -12 7 -21 -6 -33 -20 -20
-38 -11 -38 20 0 39 23 46 44 13z m1921 -13 c0 -32 -21 -39 -38 -12 -8 12 -7
21 3 32 19 24 35 14 35 -20z m1730 0 c0 -32 -21 -39 -38 -12 -8 12 -7 21 3 32
19 24 35 14 35 -20z"/>
<path d="M3882 978 c-14 -14 2 -38 24 -38 8 0 14 -7 14 -15 0 -18 -21 -20 -39
-2 -11 10 -13 9 -9 -3 6 -21 42 -24 57 -6 16 19 6 36 -20 36 -11 0 -19 7 -19
16 0 11 6 14 21 9 15 -5 19 -4 15 4 -9 14 -29 14 -44 -1z"/>
<path d="M3965 980 c3 -5 8 -10 11 -10 2 0 4 5 4 10 0 6 -5 10 -11 10 -5 0 -7
-4 -4 -10z"/>
<path d="M4090 969 c-17 -31 2 -72 32 -67 12 2 24 10 26 18 5 13 3 13 -11 2
-21 -18 -37 -7 -37 23 0 30 16 41 37 23 14 -11 16 -11 11 2 -8 24 -45 24 -58
-1z"/>
<path d="M4171 968 c-11 -31 2 -62 27 -66 29 -4 49 36 33 67 -15 28 -49 27
-60 -1z m48 -7 c7 -13 6 -23 -3 -36 -16 -22 -36 -12 -36 19 0 39 22 49 39 17z"/>
<path d="M4261 941 l2 -46 6 40 c4 26 11 40 21 40 10 0 17 -14 21 -40 l5 -40
5 40 c3 27 9 40 19 40 10 0 17 -14 21 -40 l7 -40 -2 45 -1 45 -52 1 -53 1 1
-46z"/>
<path d="M4391 941 l1 -46 8 38 c4 20 10 40 13 43 13 13 27 -9 28 -44 l2 -37
6 40 c4 26 11 40 21 40 10 0 17 -14 21 -40 l7 -40 -2 45 -1 45 -52 1 -53 1 1
-46z"/>
<path d="M4530 976 c-15 -19 -9 -56 12 -69 34 -22 66 41 36 71 -16 16 -33 15
-48 -2z m45 -32 c0 -19 -6 -30 -17 -32 -21 -4 -34 34 -17 54 18 22 34 11 34
-22z"/>
<path d="M4610 943 c0 -53 18 -57 22 -5 4 52 31 50 39 -3 l7 -40 -2 45 c-1 44
-2 45 -33 45 -32 1 -33 0 -33 -42z"/>
<path d="M4704 975 c-8 -20 4 -35 27 -35 10 0 19 -7 19 -15 0 -18 -21 -20 -39
-2 -11 10 -13 9 -9 -3 7 -21 52 -19 56 2 2 12 -6 21 -23 28 -30 11 -24 34 7
24 14 -4 18 -2 14 5 -10 16 -46 14 -52 -4z"/>
<path d="M4820 983 c0 -5 5 -25 11 -45 11 -43 29 -51 29 -14 0 37 17 40 24 4
3 -17 9 -28 13 -24 12 12 32 86 23 86 -4 0 -11 -15 -15 -32 l-7 -33 -11 33
c-5 17 -13 32 -17 32 -4 0 -11 -15 -15 -32 l-7 -33 -9 33 c-9 29 -19 43 -19
25z"/>
<path d="M4940 945 c0 -25 5 -45 10 -45 6 0 10 20 10 45 0 25 -4 45 -10 45 -5
0 -10 -20 -10 -45z"/>
<path d="M5063 945 c0 -27 2 -38 4 -22 2 15 2 37 0 50 -2 12 -4 0 -4 -28z"/>
<path d="M5090 945 c0 -54 17 -61 22 -8 4 54 28 55 29 1 1 -40 2 -41 8 -12 16
67 38 73 44 12 l4 -43 -1 45 -1 44 -52 3 -53 4 0 -46z"/>
<path d="M5230 969 c-17 -31 2 -72 32 -67 12 2 24 10 26 18 5 13 3 13 -12 1
-15 -12 -19 -12 -34 2 -15 16 -14 17 21 17 34 0 36 2 28 23 -11 30 -46 34 -61
6z m48 -7 c2 -7 -6 -12 -17 -12 -21 0 -27 11 -14 24 9 9 26 2 31 -12z"/>
<path d="M5400 945 c0 -25 5 -45 10 -45 6 0 10 20 10 45 0 25 -4 45 -10 45 -5
0 -10 -20 -10 -45z"/>
<path d="M5447 984 c-14 -14 -7 -26 8 -14 8 6 19 9 25 5 17 -11 11 -23 -12
-27 -15 -2 -23 -10 -23 -23 0 -16 7 -20 30 -20 30 -1 31 0 25 40 -4 30 -10 41
-25 43 -12 2 -24 0 -28 -4z m41 -56 c-7 -19 -38 -22 -38 -4 0 10 9 16 21 16
12 0 19 -5 17 -12z"/>
<path d="M5580 976 c-15 -19 -9 -56 12 -69 34 -22 66 41 36 71 -16 16 -33 15
-48 -2z m45 -32 c0 -19 -6 -30 -17 -32 -21 -4 -34 34 -17 54 18 22 34 11 34
-22z"/>
<path d="M5661 940 c2 -34 3 -37 6 -15 3 17 11 37 18 45 12 14 12 16 -5 16
-17 0 -20 -7 -19 -46z"/>
<path d="M5843 974 c4 -11 9 -31 13 -46 8 -37 20 -35 29 5 l7 32 11 -32 c5
-18 13 -33 16 -33 8 0 31 83 25 89 -2 2 -6 -5 -10 -15 -15 -47 -17 -49 -23
-19 -7 34 -24 37 -29 5 -4 -26 -22 -26 -22 -1 0 11 -5 23 -11 27 -7 4 -9 0 -6
-12z"/>
<path d="M5960 945 c0 -25 5 -45 10 -45 6 0 10 20 10 45 0 25 -4 45 -10 45 -5
0 -10 -20 -10 -45z"/>
<path d="M6083 945 c0 -27 2 -38 4 -22 2 15 2 37 0 50 -2 12 -4 0 -4 -28z"/>
<path d="M6263 945 c0 -27 2 -38 4 -22 2 15 2 37 0 50 -2 12 -4 0 -4 -28z"/>
<path d="M6343 983 c-7 -2 -13 -20 -13 -38 0 -25 5 -35 20 -40 22 -7 40 1 40
17 0 7 -5 6 -15 -2 -8 -6 -19 -9 -25 -5 -20 12 -10 25 20 25 31 0 39 17 18 38
-13 13 -24 14 -45 5z m35 -21 c2 -7 -6 -12 -17 -12 -21 0 -27 11 -14 24 9 9
26 2 31 -12z"/>
<path d="M6425 980 c3 -5 8 -10 11 -10 2 0 4 5 4 10 0 6 -5 10 -11 10 -5 0 -7
-4 -4 -10z"/>
<path d="M6700 976 c-15 -19 -9 -56 12 -69 34 -22 66 41 36 71 -16 16 -33 15
-48 -2z m44 -19 c8 -12 7 -21 -6 -33 -20 -20 -38 -11 -38 20 0 39 23 46 44 13z"/>
<path d="M6953 945 c0 -27 2 -38 4 -22 2 15 2 37 0 50 -2 12 -4 0 -4 -28z"/>
<path d="M6990 976 c-15 -20 -9 -56 12 -70 14 -8 21 -6 35 9 17 18 17 18 1 6
-15 -11 -21 -11 -33 -1 -8 7 -15 18 -15 25 0 7 7 18 15 25 12 10 18 10 33 -1
15 -13 16 -12 3 4 -16 21 -35 22 -51 3z"/>
<path d="M7072 978 c-16 -16 -15 -53 3 -68 33 -28 71 12 54 58 -9 24 -38 29
-57 10z m43 -34 c0 -32 -21 -39 -38 -12 -8 12 -7 21 3 32 19 24 35 14 35 -20z"/>
<path d="M7150 943 c0 -53 18 -57 22 -5 4 52 31 50 39 -3 l7 -40 -2 45 c-1 44
-2 45 -33 45 -32 1 -33 0 -33 -42z"/>
<path d="M7292 978 c-14 -14 2 -38 24 -38 8 0 14 -7 14 -15 0 -18 -21 -20 -39
-2 -11 10 -13 9 -9 -3 6 -21 42 -24 57 -6 16 19 6 36 -20 36 -11 0 -19 7 -19
16 0 11 6 14 21 9 15 -5 19 -4 15 4 -9 14 -29 14 -44 -1z"/>
<path d="M7365 969 c4 -13 12 -35 17 -49 l10 -25 13 25 c17 34 30 77 19 67 -5
-5 -14 -23 -21 -40 l-11 -32 -7 33 c-4 18 -12 35 -17 38 -6 4 -7 -3 -3 -17z"/>
<path d="M7585 948 c13 -47 28 -56 33 -20 5 31 22 28 22 -4 0 -16 5 -24 12
-22 13 5 31 63 25 81 -3 7 -9 -4 -14 -23 l-10 -35 -7 33 c-4 17 -11 32 -15 32
-5 0 -12 -15 -18 -32 l-10 -33 -7 33 c-4 17 -11 32 -16 32 -4 0 -2 -19 5 -42z"/>
<path d="M7700 964 c-19 -48 28 -87 60 -49 14 17 0 21 -17 4 -6 -6 -16 -8 -22
-5 -21 13 -11 26 19 26 31 0 39 17 18 38 -20 20 -48 14 -58 -14z m48 -2 c2 -7
-6 -12 -17 -12 -21 0 -27 11 -14 24 9 9 26 2 31 -12z"/>
<path d="M7793 945 c0 -27 2 -38 4 -22 2 15 2 37 0 50 -2 12 -4 0 -4 -28z"/>
<path d="M7870 964 c-19 -48 28 -87 60 -49 14 17 0 21 -17 4 -6 -6 -16 -8 -22
-5 -21 13 -11 26 19 26 31 0 39 17 18 38 -20 20 -48 14 -58 -14z m48 -2 c2 -7
-6 -12 -17 -12 -21 0 -27 11 -14 24 9 9 26 2 31 -12z"/>
<path d="M7961 940 c2 -34 3 -37 6 -15 3 17 12 38 20 47 14 15 13 17 -6 15
-18 -1 -21 -7 -20 -47z"/>
<path d="M8028 982 l23 -7 -26 -34 c-14 -19 -25 -36 -25 -38 0 -2 17 -2 38 -2
23 1 28 3 15 6 -28 5 -28 11 -3 43 27 34 25 40 -12 39 -28 -1 -29 -2 -10 -7z"/>
<path d="M8094 950 c1 -43 2 -45 34 -48 32 -3 32 -3 32 42 0 55 -17 62 -22 9
-4 -53 -31 -51 -39 2 l-7 40 2 -45z"/>
<path d="M8218 964 c-9 -18 -9 -30 -1 -42 13 -21 55 -22 61 -2 4 13 3 13 -11
2 -9 -8 -21 -11 -27 -7 -20 12 -10 25 20 25 33 0 35 3 20 31 -15 27 -48 24
-62 -7z m50 -2 c2 -7 -6 -12 -17 -12 -21 0 -27 11 -14 24 9 9 26 2 31 -12z"/>
<path d="M8300 945 c0 -25 5 -45 10 -45 6 0 10 20 10 45 0 25 -4 45 -10 45 -5
0 -10 -20 -10 -45z"/>
<path d="M8392 978 c-16 -16 -15 -53 3 -68 18 -15 47 -10 53 10 5 13 3 13 -12
1 -15 -12 -19 -12 -34 2 -15 16 -14 17 17 17 28 0 32 3 29 23 -3 25 -36 35
-56 15z m46 -16 c2 -7 -7 -12 -23 -12 -24 0 -26 2 -15 15 14 17 31 16 38 -3z"/>
<path d="M8470 946 c0 -55 17 -62 22 -8 4 52 31 50 39 -3 l7 -40 -2 45 c-1 43
-2 45 -33 48 -33 3 -33 3 -33 -42z"/>
<path d="M6898 943 c6 -2 18 -2 25 0 6 3 1 5 -13 5 -14 0 -19 -2 -12 -5z"/>
<path d="M3000 913 c0 -5 5 -15 10 -23 8 -12 10 -11 10 8 0 12 -4 22 -10 22
-5 0 -10 -3 -10 -7z"/>
<path d="M3965 910 c-3 -5 -1 -10 4 -10 6 0 11 5 11 10 0 6 -2 10 -4 10 -3 0
-8 -4 -11 -10z"/>
<path d="M6425 910 c-3 -5 -1 -10 4 -10 6 0 11 5 11 10 0 6 -2 10 -4 10 -3 0
-8 -4 -11 -10z"/>
<path d="M8565 910 c-3 -5 -1 -10 4 -10 6 0 11 5 11 10 0 6 -2 10 -4 10 -3 0
-8 -4 -11 -10z"/>
<path d="M492 578 c0 -35 3 -49 5 -31 4 27 9 32 36 36 l32 4 -32 1 c-25 2 -33
7 -33 21 0 15 8 21 38 24 l37 4 -42 1 -43 2 2 -62z"/>
<path d="M673 580 c0 -36 2 -50 4 -32 2 17 2 47 0 65 -2 17 -4 3 -4 -33z"/>
<path d="M713 580 c0 -36 2 -50 4 -32 2 17 2 47 0 65 -2 17 -4 3 -4 -33z"/>
<path d="M920 620 c0 -13 -5 -18 -15 -14 -21 8 -45 -14 -45 -41 0 -28 19 -45
48 -42 20 1 22 7 22 59 0 32 -2 58 -5 58 -3 0 -5 -9 -5 -20z m-5 -56 c0 -32
-21 -39 -38 -12 -8 12 -7 21 3 32 19 24 35 14 35 -20z"/>
<path d="M1140 621 c0 -14 -5 -18 -18 -14 -28 7 -47 -23 -36 -55 7 -21 16 -27
42 -29 l32 -1 0 59 c0 33 -4 59 -10 59 -5 0 -10 -9 -10 -19z m-5 -57 c0 -19
-5 -29 -15 -29 -16 0 -25 28 -16 51 10 25 31 10 31 -22z"/>
<path d="M1533 633 c-26 -10 -13 -43 22 -57 37 -16 45 -30 20 -40 -18 -6 -45
2 -45 15 0 5 -5 9 -10 9 -7 0 -7 -6 0 -20 18 -34 80 -23 80 15 0 16 -8 24 -32
31 -17 5 -33 15 -36 22 -7 21 27 26 48 7 21 -19 28 -7 8 13 -12 12 -33 14 -55
5z"/>
<path d="M2133 580 c-1 -55 0 -59 7 -27 4 20 10 40 13 43 13 13 27 -9 27 -42
0 -19 5 -34 10 -34 12 0 13 60 1 79 -5 8 -18 12 -29 9 -16 -4 -22 0 -25 16 -2
11 -4 -8 -4 -44z"/>
<path d="M2300 580 l0 -60 30 0 c23 0 33 6 42 26 15 32 0 59 -31 58 -14 0 -21
5 -21 18 0 10 -4 18 -10 18 -6 0 -10 -27 -10 -60z m55 -16 c0 -19 -5 -29 -15
-29 -16 0 -25 28 -16 51 10 25 31 10 31 -22z"/>
<path d="M2730 580 c0 -66 17 -83 22 -22 4 52 31 50 39 -3 l7 -40 -2 45 c-1
40 -4 45 -23 44 -16 0 -23 5 -23 18 0 10 -4 18 -10 18 -6 0 -10 -27 -10 -60z"/>
<path d="M3215 630 c3 -5 8 -10 11 -10 2 0 4 5 4 10 0 6 -5 10 -11 10 -5 0 -7
-4 -4 -10z"/>
<path d="M3352 580 c1 -54 2 -58 7 -25 4 26 11 40 21 40 10 0 17 -14 21 -40
l7 -40 -2 45 c-1 38 -4 45 -21 45 -11 0 -23 9 -27 20 -3 11 -6 -9 -6 -45z"/>
<path d="M3782 580 c0 -36 2 -56 5 -45 8 33 19 37 33 10 7 -14 17 -25 22 -25
5 0 1 13 -8 29 -15 25 -15 32 -5 45 8 9 9 16 3 16 -5 0 -16 -7 -23 -17 -13
-15 -15 -13 -20 18 -5 25 -6 16 -7 -31z"/>
<path d="M4350 620 c0 -13 -5 -18 -15 -14 -21 8 -45 -14 -45 -41 0 -28 19 -45
48 -42 20 1 22 7 22 59 0 32 -2 58 -5 58 -3 0 -5 -9 -5 -20z m-5 -56 c0 -32
-21 -39 -38 -12 -8 12 -7 21 3 32 19 24 35 14 35 -20z"/>
<path d="M4962 580 c1 -53 2 -58 7 -25 8 56 38 61 44 8 l4 -38 -1 40 c-1 33
-4 40 -21 40 -11 0 -23 9 -27 20 -3 11 -6 -9 -6 -45z"/>
<path d="M5553 633 c-26 -10 -13 -43 23 -58 39 -16 41 -38 6 -43 -13 -2 -25 3
-28 12 -3 9 -10 16 -15 16 -15 0 2 -29 22 -35 60 -19 82 37 24 61 -19 8 -35
19 -35 24 0 16 30 24 43 11 17 -17 31 -13 17 4 -12 15 -34 18 -57 8z"/>
<path d="M6205 630 c3 -5 8 -10 11 -10 2 0 4 5 4 10 0 6 -5 10 -11 10 -5 0 -7
-4 -4 -10z"/>
<path d="M6343 580 c0 -36 2 -55 4 -42 5 28 19 28 33 1 7 -11 14 -18 17 -16 2
3 -3 16 -12 30 -11 17 -13 27 -6 32 6 3 11 11 11 17 0 6 -9 3 -19 -6 -19 -17
-20 -17 -24 16 -2 18 -4 4 -4 -32z"/>
<path d="M6423 580 c0 -36 2 -55 4 -42 5 28 19 28 33 1 7 -11 14 -18 17 -16 2
3 -3 16 -12 30 -11 17 -13 27 -6 32 6 3 11 11 11 17 0 6 -9 3 -19 -6 -19 -17
-20 -17 -24 16 -2 18 -4 4 -4 -32z"/>
<path d="M6580 580 c0 -66 17 -83 22 -22 4 52 31 50 39 -3 l7 -40 -2 45 c-1
40 -4 45 -23 44 -16 0 -23 5 -23 18 0 10 -4 18 -10 18 -6 0 -10 -27 -10 -60z"/>
<path d="M1748 620 c-2 -6 -2 -31 0 -55 3 -34 8 -45 21 -44 10 0 11 2 4 6 -15
5 -18 70 -4 75 5 2 3 8 -4 15 -8 8 -15 8 -17 3z"/>
<path d="M2218 620 c-2 -6 -2 -31 0 -55 3 -34 8 -45 21 -44 10 0 11 2 4 6 -15
5 -18 70 -4 75 5 2 3 8 -4 15 -8 8 -15 8 -17 3z"/>
<path d="M3432 614 c-7 -8 -8 -14 -2 -14 5 0 10 -18 10 -40 0 -22 3 -40 8 -40
7 0 8 98 0 105 -1 2 -9 -3 -16 -11z"/>
<path d="M3648 618 c-8 -24 8 -92 22 -96 12 -4 13 -2 3 9 -15 15 -17 66 -4 71
5 2 3 8 -4 15 -10 9 -15 9 -17 1z"/>
<path d="M4208 618 c-8 -24 8 -92 22 -96 12 -4 13 -2 3 9 -15 15 -17 66 -4 71
5 2 3 8 -4 15 -10 9 -15 9 -17 1z"/>
<path d="M5768 620 c-5 -16 3 -100 11 -100 3 0 5 23 4 51 -1 50 -7 71 -15 49z"/>
<path d="M587 603 c-14 -13 -7 -25 8 -13 8 6 19 9 25 5 17 -11 11 -23 -12 -27
-15 -2 -23 -10 -23 -23 0 -16 7 -20 36 -21 34 -1 35 0 31 30 -3 17 -9 37 -14
44 -11 13 -40 16 -51 5z m43 -52 c0 -14 -18 -23 -30 -16 -6 4 -8 11 -5 16 8
12 35 12 35 0z"/>
<path d="M747 604 c-15 -15 -6 -35 20 -45 19 -7 23 -13 15 -21 -8 -8 -16 -7
-28 3 -15 12 -17 12 -12 -1 7 -21 52 -19 56 2 2 12 -6 21 -24 28 -20 8 -24 14
-16 22 8 8 16 7 28 -3 15 -12 17 -12 12 1 -5 16 -39 25 -51 14z"/>
<path d="M964 570 c1 -42 3 -45 29 -46 26 -1 27 1 26 45 l-2 46 -6 -40 c-4
-26 -11 -40 -21 -40 -10 0 -17 14 -21 40 l-7 40 2 -45z"/>
<path d="M1183 565 c0 -27 2 -38 4 -22 2 15 2 37 0 50 -2 12 -4 0 -4 -28z"/>
<path d="M1222 598 c-16 -16 -15 -53 3 -68 18 -15 47 -10 53 10 5 13 3 13 -12
1 -15 -12 -19 -12 -34 2 -15 16 -14 17 17 17 28 0 32 3 29 23 -3 25 -36 35
-56 15z m46 -16 c2 -7 -7 -12 -23 -12 -24 0 -26 2 -15 15 14 17 31 16 38 -3z"/>
<path d="M1307 604 c-15 -15 -6 -35 20 -45 19 -7 23 -13 15 -21 -8 -8 -16 -7
-28 3 -15 12 -17 12 -12 -1 7 -21 52 -19 56 2 2 12 -6 21 -24 28 -20 8 -24 14
-16 22 8 8 16 7 28 -3 15 -12 17 -12 12 1 -5 16 -39 25 -51 14z"/>
<path d="M1392 598 c-20 -20 -15 -66 8 -73 20 -6 56 12 45 23 -2 3 -11 -1 -19
-7 -8 -7 -20 -10 -26 -6 -20 12 -10 25 20 25 18 0 30 5 30 13 0 16 -20 37 -35
37 -6 0 -16 -5 -23 -12z m29 -26 c-28 -4 -40 6 -21 18 9 6 20 4 29 -3 12 -10
11 -13 -8 -15z"/>
<path d="M1632 598 c-20 -20 -15 -66 8 -73 20 -6 56 12 45 23 -2 3 -11 -1 -19
-7 -8 -7 -20 -10 -26 -6 -20 12 -10 25 20 25 18 0 30 5 30 13 0 16 -20 37 -35
37 -6 0 -16 -5 -23 -12z m29 -26 c-28 -4 -40 6 -21 18 9 6 20 4 29 -3 12 -10
11 -13 -8 -15z"/>
<path d="M1713 565 c0 -27 2 -38 4 -22 2 15 2 37 0 50 -2 12 -4 0 -4 -28z"/>
<path d="M1802 598 c-20 -20 -15 -66 8 -73 20 -6 56 12 45 23 -2 3 -11 -1 -19
-7 -8 -7 -20 -10 -26 -6 -20 12 -10 25 20 25 18 0 30 5 30 13 0 16 -20 37 -35
37 -6 0 -16 -5 -23 -12z m29 -26 c-28 -4 -40 6 -21 18 9 6 20 4 29 -3 12 -10
11 -13 -8 -15z"/>
<path d="M1920 566 c0 -55 17 -62 22 -8 4 52 31 50 39 -3 l7 -40 -2 45 c-1 43
-2 45 -33 48 -33 3 -33 3 -33 -42z"/>
<path d="M2010 565 c0 -25 5 -45 10 -45 6 0 10 20 10 45 0 25 -4 45 -10 45 -5
0 -10 -20 -10 -45z"/>
<path d="M2050 589 c-17 -31 2 -72 32 -67 12 2 24 10 26 18 5 13 3 13 -11 2
-21 -18 -37 -7 -37 23 0 30 16 41 37 23 14 -11 16 -11 11 2 -8 24 -45 24 -58
-1z"/>
<path d="M2402 598 c-16 -16 -15 -53 3 -68 18 -15 47 -10 53 10 5 13 3 13 -12
1 -15 -12 -19 -12 -34 2 -15 16 -14 17 17 17 28 0 32 3 29 23 -3 25 -36 35
-56 15z m46 -16 c2 -7 -7 -12 -23 -12 -24 0 -26 2 -15 15 14 17 31 16 38 -3z"/>
<path d="M2487 604 c-15 -15 -6 -35 20 -45 19 -7 23 -13 15 -21 -8 -8 -16 -7
-28 3 -15 12 -17 12 -12 -1 6 -20 35 -25 53 -10 18 15 11 28 -23 41 -19 7 -22
13 -14 21 8 8 16 7 28 -3 15 -12 17 -12 12 1 -5 16 -39 25 -51 14z"/>
<path d="M2562 568 c3 -41 5 -43 36 -44 32 -1 32 -1 31 45 -2 34 -3 38 -6 16
-10 -63 -43 -74 -43 -15 0 22 -5 40 -11 40 -6 0 -9 -17 -7 -42z"/>
<path d="M2660 596 c-30 -37 14 -96 47 -63 10 9 12 17 6 17 -7 0 -15 -5 -18
-10 -8 -13 -35 6 -35 25 0 19 27 38 35 25 3 -5 11 -10 17 -10 7 0 6 6 -2 15
-16 19 -34 19 -50 1z"/>
<path d="M2832 598 c-20 -20 -15 -66 8 -73 20 -6 56 12 45 23 -2 3 -11 -1 -19
-7 -8 -7 -20 -10 -26 -6 -20 12 -10 25 20 25 18 0 30 5 30 13 0 16 -20 37 -35
37 -6 0 -16 -5 -23 -12z m29 -26 c-28 -4 -40 6 -21 18 9 6 20 4 29 -3 12 -10
11 -13 -8 -15z"/>
<path d="M2911 561 c1 -42 2 -43 8 -15 16 65 41 74 41 14 0 -22 5 -40 11 -40
6 0 9 17 7 43 -3 40 -5 42 -35 43 -33 1 -33 1 -32 -45z"/>
<path d="M3040 565 c0 -54 17 -60 22 -8 4 52 28 56 28 4 0 -50 18 -55 22 -6 4
47 21 45 29 -2 l6 -38 2 46 1 47 -55 1 -55 0 0 -44z"/>
<path d="M3182 598 c-7 -7 -12 -21 -12 -33 0 -46 53 -62 71 -21 21 45 -26 87
-59 54z m46 -27 c5 -34 -16 -51 -33 -27 -10 14 -11 24 -4 38 13 24 33 18 37
-11z"/>
<path d="M3272 598 c-16 -16 -15 -53 3 -68 18 -15 47 -10 53 10 5 13 3 13 -11
1 -14 -11 -20 -11 -32 -1 -19 15 -19 21 -1 45 12 16 16 17 30 6 9 -7 16 -9 16
-3 0 9 -22 22 -39 22 -4 0 -12 -5 -19 -12z"/>
<path d="M3480 584 c-19 -48 28 -87 60 -49 14 17 0 21 -17 4 -6 -6 -16 -8 -22
-5 -21 13 -11 26 19 26 31 0 39 17 18 38 -20 20 -48 14 -58 -14z m48 -2 c2 -7
-6 -12 -17 -12 -21 0 -27 11 -14 24 9 9 26 2 31 -12z"/>
<path d="M3577 603 c-15 -14 -6 -34 20 -44 20 -7 23 -13 15 -21 -9 -9 -15 -9
-24 0 -18 18 -33 15 -18 -3 17 -20 54 -15 58 7 2 12 -6 21 -23 28 -15 6 -23
15 -20 21 4 6 13 8 21 5 8 -3 14 -1 14 4 0 11 -33 14 -43 3z"/>
<path d="M3867 603 c-14 -13 -7 -25 8 -13 8 6 19 9 25 5 17 -11 11 -23 -12
-27 -15 -2 -23 -10 -23 -23 0 -16 7 -20 36 -21 34 -1 35 0 31 30 -3 17 -9 37
-14 44 -11 13 -40 16 -51 5z m43 -52 c0 -14 -18 -23 -30 -16 -6 4 -8 11 -5 16
8 12 35 12 35 0z"/>
<path d="M3951 560 l1 -45 8 38 c4 20 10 40 13 43 13 13 27 -9 27 -42 0 -19 5
-34 10 -34 12 0 13 60 2 78 -5 6 -20 11 -35 10 -25 -2 -27 -5 -26 -48z"/>
<path d="M4041 560 l1 -45 8 38 c4 20 10 40 13 43 13 13 27 -9 27 -42 0 -19 5
-34 10 -34 12 0 13 60 2 78 -5 6 -20 11 -35 10 -25 -2 -27 -5 -26 -48z"/>
<path d="M4137 603 c-15 -14 -6 -34 20 -44 20 -7 23 -13 15 -21 -9 -9 -15 -9
-24 0 -18 18 -33 15 -18 -3 17 -20 54 -15 58 7 2 12 -6 21 -23 28 -15 6 -23
15 -20 21 4 6 13 8 21 5 8 -3 14 -1 14 4 0 11 -33 14 -43 3z"/>
<path d="M4394 570 c1 -42 3 -45 29 -46 26 -1 27 1 26 45 l-2 46 -6 -40 c-4
-26 -11 -40 -21 -40 -10 0 -17 14 -21 40 l-7 40 2 -45z"/>
<path d="M4488 603 c27 -5 27 -8 2 -40 -28 -35 -25 -43 13 -42 30 2 30 2 4 6
l-27 4 25 33 c32 42 32 46 -7 45 -24 -1 -27 -3 -10 -6z"/>
<path d="M4554 570 c1 -44 2 -45 34 -46 31 -1 32 0 32 43 0 53 -18 58 -22 6
-4 -53 -31 -51 -39 2 l-7 40 2 -45z"/>
<path d="M4642 560 c1 -40 2 -41 5 -10 2 19 11 40 20 47 13 10 13 12 -6 10
-18 -1 -21 -7 -19 -47z"/>
<path d="M4735 589 c4 -13 12 -35 17 -49 l10 -25 13 25 c17 34 30 77 19 67 -5
-5 -14 -23 -21 -40 l-11 -32 -7 33 c-4 18 -12 35 -17 38 -6 4 -7 -3 -3 -17z"/>
<path d="M4822 598 c-16 -16 -15 -53 3 -68 33 -28 71 12 54 58 -9 24 -38 29
-57 10z m43 -34 c0 -32 -21 -39 -38 -12 -8 12 -7 21 3 32 19 24 35 14 35 -20z"/>
<path d="M4912 560 c1 -40 2 -41 5 -10 2 19 11 40 20 47 13 10 13 12 -6 10
-18 -1 -21 -7 -19 -47z"/>
<path d="M5050 589 c-17 -31 2 -72 32 -67 12 2 24 10 26 18 5 13 3 13 -12 1
-15 -12 -19 -12 -34 2 -15 16 -14 17 21 17 34 0 36 2 28 23 -11 30 -46 34 -61
6z m48 -7 c2 -7 -6 -12 -17 -12 -21 0 -27 11 -14 24 9 9 26 2 31 -12z"/>
<path d="M5142 560 c1 -40 2 -41 5 -10 2 19 11 40 20 47 13 10 13 12 -6 10
-18 -1 -21 -7 -19 -47z"/>
<path d="M5193 565 c0 -27 2 -38 4 -22 2 15 2 37 0 50 -2 12 -4 0 -4 -28z"/>
<path d="M5232 598 c-29 -29 -3 -85 33 -71 13 4 16 3 11 -5 -5 -9 -116 -13
-414 -14 l-407 -3 395 -5 c217 -3 766 -3 1220 0 l825 5 -802 3 -803 2 0 48 c0
43 -2 48 -23 50 -13 1 -29 -4 -35 -10z m42 -21 c8 -13 6 -21 -7 -34 -23 -23
-42 -4 -33 32 7 28 23 29 40 2z"/>
<path d="M5322 598 c-16 -16 -15 -53 3 -68 16 -13 55 -5 55 12 0 6 -6 5 -16
-2 -12 -11 -18 -10 -32 3 -15 16 -14 17 16 17 25 0 32 4 32 19 0 28 -37 40
-58 19z m46 -16 c2 -7 -7 -12 -23 -12 -24 0 -26 2 -15 15 14 17 31 16 38 -3z"/>
<path d="M5400 563 c0 -53 18 -57 22 -5 4 52 31 50 39 -3 l7 -40 -2 45 c-1 44
-2 45 -33 45 -32 1 -33 0 -33 -42z"/>
<path d="M5652 598 c-16 -16 -15 -53 3 -68 16 -13 55 -5 55 12 0 6 -6 5 -16
-2 -12 -11 -18 -10 -32 3 -15 16 -14 17 16 17 25 0 32 4 32 19 0 28 -37 40
-58 19z m46 -16 c2 -7 -7 -12 -23 -12 -24 0 -26 2 -15 15 14 17 31 16 38 -3z"/>
<path d="M5733 565 c0 -27 2 -38 4 -22 2 15 2 37 0 50 -2 12 -4 0 -4 -28z"/>
<path d="M5820 596 c-15 -20 -9 -56 12 -70 14 -8 21 -6 35 9 16 17 17 18 1 6
-19 -14 -48 -9 -48 9 0 5 14 10 30 10 31 0 39 17 18 38 -16 16 -33 15 -48 -2z
m44 -11 c4 -11 -1 -15 -19 -15 -24 0 -32 10 -18 23 11 12 31 8 37 -8z"/>
<path d="M5958 603 c27 -5 27 -11 2 -43 -27 -34 -25 -40 13 -39 23 1 26 3 10
6 -28 5 -28 8 -3 40 28 35 25 43 -12 42 -24 -1 -27 -3 -10 -6z"/>
<path d="M6020 578 c0 -45 11 -59 43 -56 25 2 27 5 26 48 -1 25 -3 36 -6 25
-2 -11 -6 -30 -9 -42 -8 -41 -34 -28 -34 17 0 22 -4 40 -10 40 -5 0 -10 -15
-10 -32z"/>
<path d="M6110 563 c0 -24 5 -43 10 -43 6 0 10 15 10 33 0 18 4 37 10 43 6 6
3 10 -10 10 -17 0 -20 -7 -20 -43z"/>
<path d="M6174 568 c1 -40 3 -43 29 -44 26 -1 27 1 26 45 l-2 46 -6 -40 c-9
-57 -38 -61 -44 -6 l-4 41 1 -42z"/>
<path d="M6260 596 c-15 -20 -9 -56 12 -70 14 -8 21 -6 35 9 17 18 17 18 1 6
-15 -11 -21 -11 -33 -1 -8 7 -15 18 -15 25 0 7 7 18 15 25 12 10 18 10 33 -1
15 -13 16 -12 3 4 -16 21 -35 22 -51 3z"/>
<path d="M6500 589 c-17 -31 2 -72 32 -67 12 2 24 10 26 18 5 13 3 13 -12 1
-15 -12 -19 -12 -34 2 -15 16 -14 17 21 17 34 0 36 2 28 23 -11 30 -46 34 -61
6z m48 -7 c2 -7 -6 -12 -17 -12 -21 0 -27 11 -14 24 9 9 26 2 31 -12z"/>
<path d="M6670 563 c0 -24 5 -43 10 -43 6 0 10 15 10 33 0 18 4 37 10 43 6 6
3 10 -10 10 -17 0 -20 -7 -20 -43z"/>
<path d="M6730 589 c-17 -31 2 -72 32 -67 12 2 24 10 26 18 5 13 3 13 -12 1
-15 -12 -19 -12 -34 2 -15 16 -14 17 21 17 34 0 36 2 28 23 -11 30 -46 34 -61
6z m48 -7 c2 -7 -6 -12 -17 -12 -21 0 -27 11 -14 24 9 9 26 2 31 -12z"/>
<path d="M6821 561 l2 -46 6 40 c4 26 11 40 21 40 10 0 17 -14 21 -40 l7 -40
-2 45 c-1 42 -3 45 -28 46 -27 1 -28 -1 -27 -45z"/>
<path d="M3696 532 c-2 -4 -1 -14 5 -22 7 -12 9 -10 9 8 0 23 -5 28 -14 14z"/>
<path d="M6895 530 c-3 -5 -1 -10 4 -10 6 0 11 5 11 10 0 6 -2 10 -4 10 -3 0
-8 -4 -11 -10z"/>
</g>
</svg>
